# xmcd CD database file
#
# Track frame offsets:
#	150
#	18242
#	40203
#	51048
#	72746
#	108538
#	125352
#	146047
#	167434
#	180553
#	198795
#	211568
#
# Disc length: 2988 seconds
#
# Revision: 0
# Processed by: cddbd v1.5.2PL0 Copyright (c) Steve Scherf et al.
# Submitted via: CDex 1.51
#
DISCID=a20baa0c
DTITLE=Khmer Jazz Fusion - Khmer Jazz Fusion
DYEAR=2006
DGENRE=Jazz
TTITLE0=The Barber
TTITLE1=Sat Mahori
TTITLE2=Pinn Peat
TTITLE3=Footprints
TTITLE4=Sobay Chant
TTITLE5=Juno Katah
TTITLE6=Take Five
TTITLE7=Smaong
TTITLE8=Kyal Rompeuypat
TTITLE9=What´s Happening
TTITLE10=Khmer Tambanh
TTITLE11=A Snapshot
EXTD=YEAR: 2006
EXTT0=
EXTT1=
EXTT2=
EXTT3=
EXTT4=
EXTT5=
EXTT6=
EXTT7=
EXTT8=
EXTT9=
EXTT10=
EXTT11=
PLAYORDER=
